<?xml version="1.0" encoding="UTF-8" standalone="no"?>
<!-- Created with Inkscape (http://www.inkscape.org/) -->

<svg
   xmlns:dc="http://purl.org/dc/elements/1.1/"
   xmlns:cc="http://creativecommons.org/ns#"
   xmlns:rdf="http://www.w3.org/1999/02/22-rdf-syntax-ns#"
   xmlns:svg="http://www.w3.org/2000/svg"
   xmlns="http://www.w3.org/2000/svg"
   xmlns:sodipodi="http://sodipodi.sourceforge.net/DTD/sodipodi-0.dtd"
   xmlns:inkscape="http://www.inkscape.org/namespaces/inkscape"
   width="65mm"
   height="65mm"
   viewBox="0 0 65 65"
   version="1.1"
   id="svg9076"
   inkscape:version="0.92.4 (5da689c313, 2019-01-14)"
   sodipodi:docname="logo-imagem.svg">
  <defs
     id="defs9070" />
  <sodipodi:namedview
     id="base"
     pagecolor="#ffffff"
     bordercolor="#666666"
     borderopacity="1.0"
     inkscape:pageopacity="0.0"
     inkscape:pageshadow="2"
     inkscape:zoom="2.3446154"
     inkscape:cx="122.83465"
     inkscape:cy="122.83465"
     inkscape:document-units="mm"
     inkscape:current-layer="layer1"
     showgrid="false"
     inkscape:window-width="1366"
     inkscape:window-height="745"
     inkscape:window-x="-8"
     inkscape:window-y="-8"
     inkscape:window-maximized="1" />
  <metadata
     id="metadata9073">
    <rdf:RDF>
      <cc:Work
         rdf:about="">
        <dc:format>image/svg+xml</dc:format>
        <dc:type
           rdf:resource="http://purl.org/dc/dcmitype/StillImage" />
        <dc:title></dc:title>
      </cc:Work>
    </rdf:RDF>
  </metadata>
  <g
     inkscape:label="Camada 1"
     inkscape:groupmode="layer"
     id="layer1"
     transform="translate(0,-232)">
    <g
       id="g9645"
       transform="matrix(3.8076456,0,0,3.8076456,-94.149552,-710.9372)"
       style="stroke-width:0.26262948">
      <path
         d="m 33.261905,247.64311 a 8.5354583,8.5354583 0 1 0 8.53546,8.53546 8.5354583,8.5354583 0 0 0 -8.53546,-8.53546 z m 0,15.22677 a 6.6913125,6.6913125 0 1 1 6.68867,-6.69131 6.6913125,6.6913125 0 0 1 -6.68867,6.69131 z"
         data-color="1"
         id="path2"
         inkscape:connector-curvature="0"
         style="fill:#0033a1;stroke-width:0.06948738" />
      <path
         d="m 33.261905,261.02309 a 4.8445208,4.8445208 0 1 1 3.32846,-8.36083 l 1.27,-1.34144 a 6.6913125,6.6913125 0 1 0 0.20637,9.525 l -1.32291,-1.28588 a 4.8286458,4.8286458 0 0 1 -3.48192,1.46315 z"
         data-color="2"
         id="path4"
         inkscape:connector-curvature="0"
         style="fill:#f5a800;stroke-width:0.06948738" />
      <path
         d="m 33.261905,253.06442 a 3.1141458,3.1141458 0 1 0 3.11415,3.11415 3.1141458,3.1141458 0 0 0 -3.11415,-3.11415 z"
         data-color="1"
         id="path6"
         inkscape:connector-curvature="0"
         style="fill:#0033a1;stroke-width:0.06948738" />
    </g>
  </g>
</svg>
